<svg width="228" height="41" viewBox="0 0 228 41" fill="none" xmlns="http://www.w3.org/2000/svg">
<path fill-rule="evenodd" clip-rule="evenodd" d="M202.3 16.7997C201.145 16.7997 200.21 17.7447 200.21 18.8997C200.21 20.0546 201.145 20.9996 202.3 20.9996C203.455 20.9996 204.4 20.0546 204.4 18.8997C204.4 17.7447 203.455 16.7997 202.3 16.7997ZM196 1.04998C196 1.62747 196.472 2.09996 197.05 2.09996H198.1L201.88 10.0693L200.462 12.6313C199.696 14.0383 200.704 15.7497 202.3 15.7497H213.85C214.427 15.7497 214.9 15.2772 214.9 14.6997C214.9 14.1223 214.427 13.6498 213.85 13.6498H202.3L203.455 11.5498H211.277C212.065 11.5498 212.758 11.1193 213.115 10.4683L216.874 3.65394C217.262 2.96095 216.758 2.09996 215.96 2.09996H200.42L199.717 0.598489C199.549 0.230996 199.171 0 198.772 0H197.05C196.472 0 196 0.472492 196 1.04998ZM212.8 16.7997C211.645 16.7997 210.71 17.7447 210.71 18.8997C210.71 20.0546 211.645 20.9996 212.8 20.9996C213.955 20.9996 214.9 20.0546 214.9 18.8997C214.9 17.7447 213.955 16.7997 212.8 16.7997Z" fill="#8B96A5"/>
<path d="M185.342 29.2727H186.603L189.569 36.517H189.672L192.637 29.2727H193.899V38H192.91V31.3693H192.825L190.098 38H189.143L186.416 31.3693H186.331V38H185.342V29.2727ZM196.529 40.4545C196.359 40.4545 196.207 40.4403 196.073 40.4119C195.94 40.3864 195.847 40.3608 195.796 40.3352L196.052 39.4489C196.296 39.5114 196.512 39.5341 196.7 39.517C196.887 39.5 197.053 39.4162 197.198 39.2656C197.346 39.1179 197.481 38.8778 197.603 38.5455L197.79 38.0341L195.37 31.4545H196.461L198.268 36.6705H198.336L200.143 31.4545H201.234L198.455 38.9545C198.33 39.2926 198.175 39.5724 197.991 39.794C197.806 40.0185 197.592 40.1847 197.347 40.2926C197.106 40.4006 196.833 40.4545 196.529 40.4545ZM208.595 38.1364C207.982 38.1364 207.453 37.9915 207.01 37.7017C206.567 37.4119 206.226 37.0128 205.987 36.5043C205.749 35.9957 205.629 35.4148 205.629 34.7614C205.629 34.0966 205.751 33.5099 205.996 33.0014C206.243 32.4901 206.587 32.0909 207.027 31.804C207.47 31.5142 207.987 31.3693 208.578 31.3693C209.038 31.3693 209.453 31.4545 209.822 31.625C210.192 31.7955 210.494 32.0341 210.73 32.3409C210.966 32.6477 211.112 33.0057 211.169 33.4148H210.163C210.087 33.1165 209.916 32.8523 209.652 32.6222C209.391 32.3892 209.038 32.2727 208.595 32.2727C208.203 32.2727 207.859 32.375 207.564 32.5795C207.271 32.7812 207.043 33.0668 206.878 33.4361C206.716 33.8026 206.635 34.233 206.635 34.7273C206.635 35.233 206.714 35.6733 206.874 36.0483C207.036 36.4233 207.263 36.7145 207.555 36.9219C207.851 37.1293 208.197 37.233 208.595 37.233C208.857 37.233 209.094 37.1875 209.307 37.0966C209.52 37.0057 209.7 36.875 209.848 36.7045C209.996 36.5341 210.101 36.3295 210.163 36.0909H211.169C211.112 36.4773 210.972 36.8253 210.747 37.1349C210.526 37.4418 210.232 37.6861 209.865 37.8679C209.501 38.0469 209.078 38.1364 208.595 38.1364ZM214.565 38.1534C214.151 38.1534 213.774 38.0753 213.436 37.919C213.098 37.7599 212.83 37.5312 212.631 37.233C212.432 36.9318 212.332 36.5682 212.332 36.142C212.332 35.767 212.406 35.4631 212.554 35.2301C212.702 34.9943 212.899 34.8097 213.146 34.6761C213.393 34.5426 213.666 34.4432 213.964 34.3778C214.266 34.3097 214.568 34.2557 214.872 34.2159C215.27 34.1648 215.592 34.1264 215.839 34.1009C216.089 34.0724 216.271 34.0256 216.385 33.9602C216.501 33.8949 216.56 33.7812 216.56 33.6193V33.5852C216.56 33.1648 216.445 32.8381 216.214 32.6051C215.987 32.3722 215.642 32.2557 215.179 32.2557C214.699 32.2557 214.322 32.3608 214.05 32.571C213.777 32.7812 213.585 33.0057 213.474 33.2443L212.52 32.9034C212.69 32.5057 212.918 32.196 213.202 31.9744C213.489 31.75 213.801 31.5937 214.139 31.5057C214.48 31.4148 214.815 31.3693 215.145 31.3693C215.355 31.3693 215.597 31.3949 215.869 31.446C216.145 31.4943 216.411 31.5952 216.666 31.7486C216.925 31.902 217.139 32.1335 217.31 32.4432C217.48 32.7528 217.565 33.1676 217.565 33.6875V38H216.56V37.1136H216.509C216.44 37.2557 216.327 37.4077 216.168 37.5696C216.009 37.7315 215.797 37.8693 215.533 37.983C215.268 38.0966 214.946 38.1534 214.565 38.1534ZM214.719 37.25C215.116 37.25 215.452 37.1719 215.724 37.0156C216 36.8594 216.207 36.6577 216.347 36.4105C216.489 36.1634 216.56 35.9034 216.56 35.6307V34.7102C216.517 34.7614 216.423 34.8082 216.278 34.8509C216.136 34.8906 215.972 34.9261 215.784 34.9574C215.599 34.9858 215.419 35.0114 215.243 35.0341C215.07 35.054 214.929 35.071 214.821 35.0852C214.56 35.1193 214.315 35.1747 214.088 35.2514C213.864 35.3253 213.682 35.4375 213.543 35.5881C213.406 35.7358 213.338 35.9375 213.338 36.1932C213.338 36.5426 213.467 36.8068 213.726 36.9858C213.987 37.1619 214.318 37.25 214.719 37.25ZM219.401 38V31.4545H220.373V32.4432H220.441C220.56 32.1193 220.776 31.8565 221.088 31.6548C221.401 31.4531 221.753 31.3523 222.145 31.3523C222.219 31.3523 222.311 31.3537 222.422 31.3565C222.533 31.3594 222.617 31.3636 222.674 31.3693V32.392C222.64 32.3835 222.561 32.3707 222.439 32.3537C222.32 32.3338 222.194 32.3239 222.06 32.3239C221.742 32.3239 221.458 32.3906 221.208 32.5241C220.961 32.6548 220.765 32.8366 220.62 33.0696C220.478 33.2997 220.407 33.5625 220.407 33.858V38H219.401ZM227.123 31.4545V32.3068H223.73V31.4545H227.123ZM224.719 29.8864H225.725V36.125C225.725 36.4091 225.766 36.6222 225.848 36.7642C225.934 36.9034 226.042 36.9972 226.172 37.0455C226.306 37.0909 226.446 37.1136 226.594 37.1136C226.705 37.1136 226.796 37.108 226.867 37.0966C226.938 37.0824 226.995 37.071 227.037 37.0625L227.242 37.9659C227.174 37.9915 227.078 38.017 226.956 38.0426C226.834 38.071 226.679 38.0852 226.492 38.0852C226.208 38.0852 225.929 38.0241 225.657 37.902C225.387 37.7798 225.162 37.5938 224.983 37.3438C224.807 37.0938 224.719 36.7784 224.719 36.3977V29.8864Z" fill="#8B96A5"/>
<path fill-rule="evenodd" clip-rule="evenodd" d="M148.35 18.1302C147.59 18.8202 146.42 18.8202 145.66 18.1202L145.55 18.0202C140.3 13.2702 136.87 10.1602 137 6.28017C137.06 4.58017 137.93 2.95017 139.34 1.99017C141.98 0.190166 145.24 1.03017 147 3.09017C148.76 1.03017 152.02 0.180166 154.66 1.99017C156.07 2.95017 156.94 4.58017 157 6.28017C157.14 10.1602 153.7 13.2702 148.45 18.0402L148.35 18.1302Z" fill="#8B96A5"/>
<path d="M135.631 33.6364C135.631 34.5568 135.465 35.3523 135.133 36.0227C134.8 36.6932 134.344 37.2102 133.765 37.5739C133.185 37.9375 132.523 38.1193 131.779 38.1193C131.035 38.1193 130.373 37.9375 129.793 37.5739C129.214 37.2102 128.758 36.6932 128.425 36.0227C128.093 35.3523 127.927 34.5568 127.927 33.6364C127.927 32.7159 128.093 31.9205 128.425 31.25C128.758 30.5795 129.214 30.0625 129.793 29.6989C130.373 29.3352 131.035 29.1534 131.779 29.1534C132.523 29.1534 133.185 29.3352 133.765 29.6989C134.344 30.0625 134.8 30.5795 135.133 31.25C135.465 31.9205 135.631 32.7159 135.631 33.6364ZM134.609 33.6364C134.609 32.8807 134.482 32.2429 134.229 31.723C133.979 31.2031 133.64 30.8097 133.211 30.5426C132.785 30.2756 132.308 30.142 131.779 30.142C131.251 30.142 130.772 30.2756 130.343 30.5426C129.917 30.8097 129.577 31.2031 129.325 31.723C129.075 32.2429 128.95 32.8807 128.95 33.6364C128.95 34.392 129.075 35.0298 129.325 35.5497C129.577 36.0696 129.917 36.4631 130.343 36.7301C130.772 36.9972 131.251 37.1307 131.779 37.1307C132.308 37.1307 132.785 36.9972 133.211 36.7301C133.64 36.4631 133.979 36.0696 134.229 35.5497C134.482 35.0298 134.609 34.392 134.609 33.6364ZM137.272 38V31.4545H138.244V32.4432H138.312C138.431 32.1193 138.647 31.8565 138.96 31.6548C139.272 31.4531 139.624 31.3523 140.016 31.3523C140.09 31.3523 140.183 31.3537 140.293 31.3565C140.404 31.3594 140.488 31.3636 140.545 31.3693V32.392C140.511 32.3835 140.433 32.3707 140.31 32.3537C140.191 32.3338 140.065 32.3239 139.931 32.3239C139.613 32.3239 139.329 32.3906 139.079 32.5241C138.832 32.6548 138.636 32.8366 138.491 33.0696C138.349 33.2997 138.278 33.5625 138.278 33.858V38H137.272ZM144.009 38.1364C143.464 38.1364 142.982 37.9986 142.565 37.723C142.147 37.4446 141.82 37.0526 141.585 36.5469C141.349 36.0384 141.231 35.4375 141.231 34.7443C141.231 34.0568 141.349 33.4602 141.585 32.9545C141.82 32.4489 142.148 32.0582 142.569 31.7827C142.989 31.5071 143.475 31.3693 144.026 31.3693C144.452 31.3693 144.789 31.4403 145.036 31.5824C145.286 31.7216 145.477 31.8807 145.607 32.0597C145.741 32.2358 145.844 32.3807 145.918 32.4943H146.004V29.2727H147.009V38H146.038V36.9943H145.918C145.844 37.1136 145.739 37.2642 145.603 37.446C145.467 37.625 145.272 37.7855 145.019 37.9276C144.766 38.0668 144.43 38.1364 144.009 38.1364ZM144.146 37.233C144.549 37.233 144.89 37.1278 145.168 36.9176C145.447 36.7045 145.658 36.4105 145.803 36.0355C145.948 35.6577 146.021 35.2216 146.021 34.7273C146.021 34.2386 145.95 33.8111 145.808 33.4446C145.665 33.0753 145.455 32.7884 145.177 32.5838C144.898 32.3764 144.555 32.2727 144.146 32.2727C143.719 32.2727 143.364 32.3821 143.08 32.6009C142.799 32.8168 142.587 33.1108 142.445 33.483C142.306 33.8523 142.237 34.267 142.237 34.7273C142.237 35.1932 142.308 35.6165 142.45 35.9972C142.594 36.375 142.808 36.6761 143.089 36.9006C143.373 37.1222 143.725 37.233 144.146 37.233ZM151.735 38.1364C151.104 38.1364 150.56 37.9972 150.103 37.7188C149.648 37.4375 149.298 37.0455 149.05 36.5426C148.806 36.0369 148.684 35.4489 148.684 34.7784C148.684 34.108 148.806 33.517 149.05 33.0057C149.298 32.4915 149.641 32.0909 150.082 31.804C150.525 31.5142 151.042 31.3693 151.633 31.3693C151.974 31.3693 152.31 31.4261 152.643 31.5398C152.975 31.6534 153.278 31.8381 153.55 32.0938C153.823 32.3466 154.04 32.6818 154.202 33.0994C154.364 33.517 154.445 34.0312 154.445 34.642V35.0682H149.4V34.1989H153.423C153.423 33.8295 153.349 33.5 153.201 33.2102C153.056 32.9205 152.849 32.6918 152.579 32.5241C152.312 32.3565 151.996 32.2727 151.633 32.2727C151.232 32.2727 150.886 32.3722 150.593 32.571C150.303 32.767 150.08 33.0227 149.924 33.3381C149.768 33.6534 149.69 33.9915 149.69 34.3523V34.9318C149.69 35.4261 149.775 35.8452 149.945 36.1889C150.119 36.5298 150.359 36.7898 150.665 36.9688C150.972 37.1449 151.329 37.233 151.735 37.233C151.999 37.233 152.238 37.196 152.451 37.1222C152.667 37.0455 152.853 36.9318 153.009 36.7812C153.165 36.6278 153.286 36.4375 153.371 36.2102L154.343 36.483C154.241 36.8125 154.069 37.1023 153.827 37.3523C153.586 37.5994 153.288 37.7926 152.933 37.9318C152.577 38.0682 152.178 38.1364 151.735 38.1364ZM155.975 38V31.4545H156.947V32.4432H157.015C157.134 32.1193 157.35 31.8565 157.663 31.6548C157.975 31.4531 158.327 31.3523 158.719 31.3523C158.793 31.3523 158.886 31.3537 158.996 31.3565C159.107 31.3594 159.191 31.3636 159.248 31.3693V32.392C159.214 32.3835 159.136 32.3707 159.013 32.3537C158.894 32.3338 158.768 32.3239 158.634 32.3239C158.316 32.3239 158.032 32.3906 157.782 32.5241C157.535 32.6548 157.339 32.8366 157.194 33.0696C157.052 33.2997 156.981 33.5625 156.981 33.858V38H155.975ZM165.076 32.9205L164.173 33.1761C164.116 33.0256 164.032 32.8793 163.922 32.7372C163.814 32.5923 163.666 32.473 163.478 32.3793C163.291 32.2855 163.051 32.2386 162.758 32.2386C162.358 32.2386 162.024 32.331 161.757 32.5156C161.493 32.6974 161.36 32.929 161.36 33.2102C161.36 33.4602 161.451 33.6577 161.633 33.8026C161.815 33.9474 162.099 34.0682 162.485 34.1648L163.457 34.4034C164.042 34.5455 164.478 34.7628 164.765 35.0554C165.052 35.3452 165.196 35.7187 165.196 36.1761C165.196 36.5511 165.088 36.8864 164.872 37.1818C164.659 37.4773 164.36 37.7102 163.977 37.8807C163.593 38.0511 163.147 38.1364 162.639 38.1364C161.971 38.1364 161.419 37.9915 160.981 37.7017C160.544 37.4119 160.267 36.9886 160.15 36.4318L161.105 36.1932C161.196 36.5455 161.368 36.8097 161.62 36.9858C161.876 37.1619 162.21 37.25 162.622 37.25C163.091 37.25 163.463 37.1506 163.738 36.9517C164.017 36.75 164.156 36.5085 164.156 36.2273C164.156 36 164.076 35.8097 163.917 35.6562C163.758 35.5 163.514 35.3835 163.184 35.3068L162.093 35.0511C161.494 34.9091 161.054 34.6889 160.772 34.3906C160.494 34.0895 160.355 33.7131 160.355 33.2614C160.355 32.892 160.458 32.5653 160.666 32.2812C160.876 31.9972 161.162 31.7741 161.522 31.6122C161.886 31.4503 162.298 31.3693 162.758 31.3693C163.406 31.3693 163.914 31.5114 164.284 31.7955C164.656 32.0795 164.92 32.4545 165.076 32.9205Z" fill="#8B96A5"/>
<path d="M61.4279 29.2727H62.6893L65.6552 36.517H65.7575L68.7234 29.2727H69.9847V38H68.9961V31.3693H68.9109L66.1836 38H65.229L62.5018 31.3693H62.4165V38H61.4279V29.2727ZM74.7116 38.1364C74.081 38.1364 73.5369 37.9972 73.0795 37.7188C72.625 37.4375 72.2741 37.0455 72.027 36.5426C71.7827 36.0369 71.6605 35.4489 71.6605 34.7784C71.6605 34.108 71.7827 33.517 72.027 33.0057C72.2741 32.4915 72.6179 32.0909 73.0582 31.804C73.5014 31.5142 74.0185 31.3693 74.6094 31.3693C74.9503 31.3693 75.2869 31.4261 75.6193 31.5398C75.9517 31.6534 76.2543 31.8381 76.527 32.0938C76.7997 32.3466 77.017 32.6818 77.179 33.0994C77.3409 33.517 77.4219 34.0312 77.4219 34.642V35.0682H72.3764V34.1989H76.3991C76.3991 33.8295 76.3253 33.5 76.1776 33.2102C76.0327 32.9205 75.8253 32.6918 75.5554 32.5241C75.2884 32.3565 74.973 32.2727 74.6094 32.2727C74.2088 32.2727 73.8622 32.3722 73.5696 32.571C73.2798 32.767 73.0568 33.0227 72.9006 33.3381C72.7443 33.6534 72.6662 33.9915 72.6662 34.3523V34.9318C72.6662 35.4261 72.7514 35.8452 72.9219 36.1889C73.0952 36.5298 73.3352 36.7898 73.642 36.9688C73.9489 37.1449 74.3054 37.233 74.7116 37.233C74.9759 37.233 75.2145 37.196 75.4276 37.1222C75.6435 37.0455 75.8295 36.9318 75.9858 36.7812C76.142 36.6278 76.2628 36.4375 76.348 36.2102L77.3196 36.483C77.2173 36.8125 77.0455 37.1023 76.804 37.3523C76.5625 37.5994 76.2642 37.7926 75.9091 37.9318C75.554 38.0682 75.1548 38.1364 74.7116 38.1364ZM83.5881 32.9205L82.6847 33.1761C82.6278 33.0256 82.544 32.8793 82.4332 32.7372C82.3253 32.5923 82.1776 32.473 81.9901 32.3793C81.8026 32.2855 81.5625 32.2386 81.2699 32.2386C80.8693 32.2386 80.5355 32.331 80.2685 32.5156C80.0043 32.6974 79.8722 32.929 79.8722 33.2102C79.8722 33.4602 79.9631 33.6577 80.1449 33.8026C80.3267 33.9474 80.6108 34.0682 80.9972 34.1648L81.9688 34.4034C82.554 34.5455 82.9901 34.7628 83.277 35.0554C83.5639 35.3452 83.7074 35.7187 83.7074 36.1761C83.7074 36.5511 83.5994 36.8864 83.3835 37.1818C83.1705 37.4773 82.8722 37.7102 82.4886 37.8807C82.1051 38.0511 81.6591 38.1364 81.1506 38.1364C80.483 38.1364 79.9304 37.9915 79.4929 37.7017C79.0554 37.4119 78.7784 36.9886 78.6619 36.4318L79.6165 36.1932C79.7074 36.5455 79.8793 36.8097 80.1321 36.9858C80.3878 37.1619 80.7216 37.25 81.1335 37.25C81.6023 37.25 81.9744 37.1506 82.25 36.9517C82.5284 36.75 82.6676 36.5085 82.6676 36.2273C82.6676 36 82.5881 35.8097 82.429 35.6562C82.2699 35.5 82.0256 35.3835 81.696 35.3068L80.6051 35.0511C80.0057 34.9091 79.5653 34.6889 79.2841 34.3906C79.0057 34.0895 78.8665 33.7131 78.8665 33.2614C78.8665 32.892 78.9702 32.5653 79.1776 32.2812C79.3878 31.9972 79.6733 31.7741 80.0341 31.6122C80.3977 31.4503 80.8097 31.3693 81.2699 31.3693C81.9176 31.3693 82.4261 31.5114 82.7955 31.7955C83.1676 32.0795 83.4318 32.4545 83.5881 32.9205ZM89.8576 32.9205L88.9542 33.1761C88.8974 33.0256 88.8136 32.8793 88.7028 32.7372C88.5948 32.5923 88.4471 32.473 88.2596 32.3793C88.0721 32.2855 87.832 32.2386 87.5394 32.2386C87.1388 32.2386 86.805 32.331 86.538 32.5156C86.2738 32.6974 86.1417 32.929 86.1417 33.2102C86.1417 33.4602 86.2326 33.6577 86.4144 33.8026C86.5962 33.9474 86.8803 34.0682 87.2667 34.1648L88.2383 34.4034C88.8235 34.5455 89.2596 34.7628 89.5465 35.0554C89.8335 35.3452 89.9769 35.7187 89.9769 36.1761C89.9769 36.5511 89.869 36.8864 89.6531 37.1818C89.44 37.4773 89.1417 37.7102 88.7582 37.8807C88.3746 38.0511 87.9286 38.1364 87.4201 38.1364C86.7525 38.1364 86.1999 37.9915 85.7624 37.7017C85.3249 37.4119 85.0479 36.9886 84.9315 36.4318L85.886 36.1932C85.9769 36.5455 86.1488 36.8097 86.4016 36.9858C86.6573 37.1619 86.9911 37.25 87.4031 37.25C87.8718 37.25 88.244 37.1506 88.5195 36.9517C88.7979 36.75 88.9371 36.5085 88.9371 36.2273C88.9371 36 88.8576 35.8097 88.6985 35.6562C88.5394 35.5 88.2951 35.3835 87.9656 35.3068L86.8746 35.0511C86.2752 34.9091 85.8349 34.6889 85.5536 34.3906C85.2752 34.0895 85.136 33.7131 85.136 33.2614C85.136 32.892 85.2397 32.5653 85.4471 32.2812C85.6573 31.9972 85.9428 31.7741 86.3036 31.6122C86.6673 31.4503 87.0792 31.3693 87.5394 31.3693C88.1871 31.3693 88.6957 31.5114 89.065 31.7955C89.4371 32.0795 89.7013 32.4545 89.8576 32.9205ZM93.4169 38.1534C93.0021 38.1534 92.6257 38.0753 92.2876 37.919C91.9496 37.7599 91.6811 37.5312 91.4822 37.233C91.2834 36.9318 91.1839 36.5682 91.1839 36.142C91.1839 35.767 91.2578 35.4631 91.4055 35.2301C91.5533 34.9943 91.7507 34.8097 91.9979 34.6761C92.245 34.5426 92.5178 34.4432 92.8161 34.3778C93.1172 34.3097 93.4197 34.2557 93.7237 34.2159C94.1214 34.1648 94.4439 34.1264 94.6911 34.1009C94.9411 34.0724 95.1229 34.0256 95.2365 33.9602C95.353 33.8949 95.4112 33.7812 95.4112 33.6193V33.5852C95.4112 33.1648 95.2962 32.8381 95.0661 32.6051C94.8388 32.3722 94.4936 32.2557 94.0305 32.2557C93.5504 32.2557 93.174 32.3608 92.9013 32.571C92.6286 32.7812 92.4368 33.0057 92.326 33.2443L91.3714 32.9034C91.5419 32.5057 91.7692 32.196 92.0533 31.9744C92.3402 31.75 92.6527 31.5937 92.9908 31.5057C93.3317 31.4148 93.6669 31.3693 93.9964 31.3693C94.2067 31.3693 94.4482 31.3949 94.7209 31.446C94.9964 31.4943 95.2621 31.5952 95.5178 31.7486C95.7763 31.902 95.9908 32.1335 96.1612 32.4432C96.3317 32.7528 96.4169 33.1676 96.4169 33.6875V38H95.4112V37.1136H95.3601C95.2919 37.2557 95.1783 37.4077 95.0192 37.5696C94.8601 37.7315 94.6484 37.8693 94.3842 37.983C94.12 38.0966 93.7976 38.1534 93.4169 38.1534ZM93.5703 37.25C93.968 37.25 94.3033 37.1719 94.576 37.0156C94.8516 36.8594 95.0589 36.6577 95.1982 36.4105C95.3402 36.1634 95.4112 35.9034 95.4112 35.6307V34.7102C95.3686 34.7614 95.2749 34.8082 95.13 34.8509C94.9879 34.8906 94.8232 34.9261 94.6357 34.9574C94.451 34.9858 94.2706 35.0114 94.0945 35.0341C93.9212 35.054 93.7805 35.071 93.6726 35.0852C93.4112 35.1193 93.1669 35.1747 92.9396 35.2514C92.7152 35.3253 92.5334 35.4375 92.3942 35.5881C92.2578 35.7358 92.1896 35.9375 92.1896 36.1932C92.1896 36.5426 92.3189 36.8068 92.5774 36.9858C92.8388 37.1619 93.1697 37.25 93.5703 37.25ZM100.895 40.5909C100.409 40.5909 99.9911 40.5284 99.6417 40.4034C99.2923 40.2812 99.0011 40.1193 98.7681 39.9176C98.538 39.7188 98.3548 39.5057 98.2184 39.2784L99.0195 38.7159C99.1104 38.8352 99.2255 38.9716 99.3647 39.125C99.5039 39.2812 99.6942 39.4162 99.9357 39.5298C100.18 39.6463 100.5 39.7045 100.895 39.7045C101.423 39.7045 101.859 39.5767 102.203 39.321C102.547 39.0653 102.718 38.6648 102.718 38.1193V36.7898H102.633C102.559 36.9091 102.454 37.0568 102.318 37.233C102.184 37.4062 101.991 37.5611 101.738 37.6974C101.488 37.831 101.15 37.8977 100.724 37.8977C100.196 37.8977 99.7212 37.7727 99.3008 37.5227C98.8832 37.2727 98.5522 36.9091 98.3079 36.4318C98.0664 35.9545 97.9457 35.375 97.9457 34.6932C97.9457 34.0227 98.0636 33.4389 98.2994 32.9418C98.5352 32.4418 98.8633 32.0554 99.2837 31.7827C99.7042 31.5071 100.19 31.3693 100.741 31.3693C101.167 31.3693 101.505 31.4403 101.755 31.5824C102.008 31.7216 102.201 31.8807 102.335 32.0597C102.471 32.2358 102.576 32.3807 102.65 32.4943H102.752V31.4545H103.724V38.1875C103.724 38.75 103.596 39.2074 103.341 39.5597C103.088 39.9148 102.747 40.1747 102.318 40.3395C101.892 40.5071 101.417 40.5909 100.895 40.5909ZM100.86 36.9943C101.264 36.9943 101.605 36.902 101.883 36.7173C102.162 36.5327 102.373 36.267 102.518 35.9205C102.663 35.5739 102.735 35.1591 102.735 34.6761C102.735 34.2045 102.664 33.7884 102.522 33.4276C102.38 33.0668 102.17 32.7841 101.892 32.5795C101.613 32.375 101.27 32.2727 100.86 32.2727C100.434 32.2727 100.079 32.3807 99.7951 32.5966C99.5138 32.8125 99.3022 33.1023 99.1602 33.4659C99.021 33.8295 98.9513 34.233 98.9513 34.6761C98.9513 35.1307 99.0224 35.5327 99.1644 35.8821C99.3093 36.2287 99.5224 36.5014 99.8036 36.7003C100.088 36.8963 100.44 36.9943 100.86 36.9943ZM108.309 38.1364C107.679 38.1364 107.135 37.9972 106.677 37.7188C106.223 37.4375 105.872 37.0455 105.625 36.5426C105.38 36.0369 105.258 35.4489 105.258 34.7784C105.258 34.108 105.38 33.517 105.625 33.0057C105.872 32.4915 106.216 32.0909 106.656 31.804C107.099 31.5142 107.616 31.3693 108.207 31.3693C108.548 31.3693 108.885 31.4261 109.217 31.5398C109.549 31.6534 109.852 31.8381 110.125 32.0938C110.397 32.3466 110.615 32.6818 110.777 33.0994C110.939 33.517 111.02 34.0312 111.02 34.642V35.0682H105.974V34.1989H109.997C109.997 33.8295 109.923 33.5 109.775 33.2102C109.63 32.9205 109.423 32.6918 109.153 32.5241C108.886 32.3565 108.571 32.2727 108.207 32.2727C107.806 32.2727 107.46 32.3722 107.167 32.571C106.877 32.767 106.654 33.0227 106.498 33.3381C106.342 33.6534 106.264 33.9915 106.264 34.3523V34.9318C106.264 35.4261 106.349 35.8452 106.52 36.1889C106.693 36.5298 106.933 36.7898 107.24 36.9688C107.547 37.1449 107.903 37.233 108.309 37.233C108.574 37.233 108.812 37.196 109.025 37.1222C109.241 37.0455 109.427 36.9318 109.583 36.7812C109.74 36.6278 109.86 36.4375 109.946 36.2102L110.917 36.483C110.815 36.8125 110.643 37.1023 110.402 37.3523C110.16 37.5994 109.862 37.7926 109.507 37.9318C109.152 38.0682 108.752 38.1364 108.309 38.1364Z" fill="#8B96A5"/>
<path fill-rule="evenodd" clip-rule="evenodd" d="M94 1H78C76.9 1 76.01 1.9 76.01 3L76 21L80 17H94C95.1 17 96 16.1 96 15V3C96 1.9 95.1 1 94 1ZM81 8H91C91.55 8 92 8.45 92 9C92 9.55 91.55 10 91 10H81C80.45 10 80 9.55 80 9C80 8.45 80.45 8 81 8ZM87 13H81C80.45 13 80 12.55 80 12C80 11.45 80.45 11 81 11H87C87.55 11 88 11.45 88 12C88 12.55 87.55 13 87 13ZM91 7H81C80.45 7 80 6.55 80 6C80 5.45 80.45 5 81 5H91C91.55 5 92 5.45 92 6C92 6.55 91.55 7 91 7Z" fill="#8B96A5"/>
<path d="M1.53338 38V29.2727H4.48224C5.1669 29.2727 5.72656 29.3963 6.16122 29.6435C6.59872 29.8878 6.92259 30.2188 7.13281 30.6364C7.34304 31.054 7.44815 31.5199 7.44815 32.0341C7.44815 32.5483 7.34304 33.0156 7.13281 33.4361C6.92543 33.8565 6.6044 34.1918 6.16974 34.4418C5.73509 34.6889 5.17827 34.8125 4.49929 34.8125H2.38565V33.875H4.4652C4.93395 33.875 5.31037 33.794 5.59446 33.6321C5.87855 33.4702 6.08452 33.2514 6.21236 32.9759C6.34304 32.6974 6.40838 32.3835 6.40838 32.0341C6.40838 31.6847 6.34304 31.3722 6.21236 31.0966C6.08452 30.821 5.87713 30.6051 5.5902 30.4489C5.30327 30.2898 4.92259 30.2102 4.44815 30.2102H2.5902V38H1.53338ZM9.0142 38V31.4545H9.9858V32.4432H10.054C10.1733 32.1193 10.3892 31.8565 10.7017 31.6548C11.0142 31.4531 11.3665 31.3523 11.7585 31.3523C11.8324 31.3523 11.9247 31.3537 12.0355 31.3565C12.1463 31.3594 12.2301 31.3636 12.2869 31.3693V32.392C12.2528 32.3835 12.1747 32.3707 12.0526 32.3537C11.9332 32.3338 11.8068 32.3239 11.6733 32.3239C11.3551 32.3239 11.071 32.3906 10.821 32.5241C10.5739 32.6548 10.3778 32.8366 10.233 33.0696C10.0909 33.2997 10.0199 33.5625 10.0199 33.858V38H9.0142ZM15.9389 38.1364C15.348 38.1364 14.8295 37.9957 14.3835 37.7145C13.9403 37.4332 13.5938 37.0398 13.3438 36.5341C13.0966 36.0284 12.973 35.4375 12.973 34.7614C12.973 34.0795 13.0966 33.4844 13.3438 32.9759C13.5938 32.4673 13.9403 32.0724 14.3835 31.7912C14.8295 31.5099 15.348 31.3693 15.9389 31.3693C16.5298 31.3693 17.0469 31.5099 17.4901 31.7912C17.9361 32.0724 18.2827 32.4673 18.5298 32.9759C18.7798 33.4844 18.9048 34.0795 18.9048 34.7614C18.9048 35.4375 18.7798 36.0284 18.5298 36.5341C18.2827 37.0398 17.9361 37.4332 17.4901 37.7145C17.0469 37.9957 16.5298 38.1364 15.9389 38.1364ZM15.9389 37.233C16.3878 37.233 16.7571 37.1179 17.0469 36.8878C17.3366 36.6577 17.5511 36.3551 17.6903 35.9801C17.8295 35.6051 17.8991 35.1989 17.8991 34.7614C17.8991 34.3239 17.8295 33.9162 17.6903 33.5384C17.5511 33.1605 17.3366 32.8551 17.0469 32.6222C16.7571 32.3892 16.3878 32.2727 15.9389 32.2727C15.4901 32.2727 15.1207 32.3892 14.831 32.6222C14.5412 32.8551 14.3267 33.1605 14.1875 33.5384C14.0483 33.9162 13.9787 34.3239 13.9787 34.7614C13.9787 35.1989 14.0483 35.6051 14.1875 35.9801C14.3267 36.3551 14.5412 36.6577 14.831 36.8878C15.1207 37.1179 15.4901 37.233 15.9389 37.233ZM23.3548 31.4545V32.3068H19.8263V31.4545H23.3548ZM20.8832 38V30.5511C20.8832 30.1761 20.9712 29.8636 21.1474 29.6136C21.3235 29.3636 21.5522 29.1761 21.8335 29.0511C22.1147 28.9261 22.4116 28.8636 22.7241 28.8636C22.9712 28.8636 23.1729 28.8835 23.3292 28.9233C23.4854 28.9631 23.6019 29 23.6786 29.0341L23.3888 29.9034C23.3377 29.8864 23.2667 29.8651 23.1758 29.8395C23.0877 29.8139 22.9712 29.8011 22.8263 29.8011C22.494 29.8011 22.2539 29.8849 22.1062 30.0526C21.9613 30.2202 21.8888 30.4659 21.8888 30.7898V38H20.8832ZM24.7642 38V31.4545H25.7699V38H24.7642ZM25.2756 30.3636C25.0795 30.3636 24.9105 30.2969 24.7685 30.1634C24.6293 30.0298 24.5597 29.8693 24.5597 29.6818C24.5597 29.4943 24.6293 29.3338 24.7685 29.2003C24.9105 29.0668 25.0795 29 25.2756 29C25.4716 29 25.6392 29.0668 25.7784 29.2003C25.9205 29.3338 25.9915 29.4943 25.9915 29.6818C25.9915 29.8693 25.9205 30.0298 25.7784 30.1634C25.6392 30.2969 25.4716 30.3636 25.2756 30.3636ZM28.6175 29.2727V38H27.6119V29.2727H28.6175ZM33.2038 38.1364C32.5732 38.1364 32.0291 37.9972 31.5717 37.7188C31.1172 37.4375 30.7663 37.0455 30.5192 36.5426C30.2749 36.0369 30.1527 35.4489 30.1527 34.7784C30.1527 34.108 30.2749 33.517 30.5192 33.0057C30.7663 32.4915 31.1101 32.0909 31.5504 31.804C31.9936 31.5142 32.5107 31.3693 33.1016 31.3693C33.4425 31.3693 33.7791 31.4261 34.1115 31.5398C34.4439 31.6534 34.7464 31.8381 35.0192 32.0938C35.2919 32.3466 35.5092 32.6818 35.6712 33.0994C35.8331 33.517 35.9141 34.0312 35.9141 34.642V35.0682H30.8686V34.1989H34.8913C34.8913 33.8295 34.8175 33.5 34.6697 33.2102C34.5249 32.9205 34.3175 32.6918 34.0476 32.5241C33.7805 32.3565 33.4652 32.2727 33.1016 32.2727C32.701 32.2727 32.3544 32.3722 32.0618 32.571C31.772 32.767 31.549 33.0227 31.3928 33.3381C31.2365 33.6534 31.1584 33.9915 31.1584 34.3523V34.9318C31.1584 35.4261 31.2436 35.8452 31.4141 36.1889C31.5874 36.5298 31.8274 36.7898 32.1342 36.9688C32.4411 37.1449 32.7976 37.233 33.2038 37.233C33.468 37.233 33.7067 37.196 33.9197 37.1222C34.1357 37.0455 34.3217 36.9318 34.478 36.7812C34.6342 36.6278 34.755 36.4375 34.8402 36.2102L35.8118 36.483C35.7095 36.8125 35.5376 37.1023 35.2962 37.3523C35.0547 37.5994 34.7564 37.7926 34.4013 37.9318C34.0462 38.0682 33.647 38.1364 33.2038 38.1364Z" fill="#8B96A5"/>
<path fill-rule="evenodd" clip-rule="evenodd" d="M18 10C20.7625 10 23 7.7625 23 5C23 2.2375 20.7625 0 18 0C15.2375 0 13 2.2375 13 5C13 7.7625 15.2375 10 18 10ZM18 11.5C14.6625 11.5 8 13.175 8 16.5V17.75C8 18.4375 8.5625 19 9.25 19H26.75C27.4375 19 28 18.4375 28 17.75V16.5C28 13.175 21.3375 11.5 18 11.5Z" fill="#8B96A5"/>
</svg>
